<svg width="20" height="21" viewBox="0 0 20 21" fill="none" xmlns="http://www.w3.org/2000/svg">
<path d="M17.418 6.22035C17.5485 6.09167 17.7243 6.01953 17.9075 6.01953C18.0907 6.01953 18.2666 6.09167 18.397 6.22035C18.4613 6.28362 18.5123 6.35904 18.5471 6.44222C18.582 6.5254 18.5999 6.61467 18.5999 6.70485C18.5999 6.79502 18.582 6.8843 18.5471 6.96747C18.5123 7.05065 18.4613 7.12607 18.397 7.18935L10.489 15.0193C10.3586 15.148 10.1828 15.2202 9.99953 15.2202C9.81631 15.2202 9.64046 15.148 9.51003 15.0193L1.60203 7.18935C1.53778 7.12607 1.48676 7.05065 1.45193 6.96747C1.41711 6.8843 1.39917 6.79502 1.39917 6.70485C1.39917 6.61467 1.41711 6.5254 1.45193 6.44222C1.48676 6.35904 1.53778 6.28362 1.60203 6.22035C1.73246 6.09167 1.90831 6.01953 2.09153 6.01953C2.27475 6.01953 2.4506 6.09167 2.58103 6.22035L10 13.3613L17.418 6.22035Z" fill="white"/>
</svg>
