<svg width="20" height="20" viewBox="0 0 20 20" fill="none" xmlns="http://www.w3.org/2000/svg">
<path d="M19.7693 1.32205C19.927 1.17665 20.0039 0.997302 19.9998 0.784006C20.0039 0.57071 19.927 0.386238 19.7693 0.23059C19.6239 0.0830685 19.4445 0.00620512 19.2312 0C19.0179 0.00616508 18.8334 0.0830285 18.6778 0.23059L10.0076 8.91615L1.32205 0.23059C1.17665 0.0830285 0.997302 0.00616508 0.784006 0C0.57071 0.00620512 0.386238 0.0830685 0.23059 0.23059C0.0830685 0.386238 0.00620512 0.57071 0 0.784006C0.00616508 0.997302 0.0830285 1.17665 0.23059 1.32205L8.91615 10.0076L0.23059 18.6778C0.0830285 18.8334 0.00616508 19.0179 0 19.2312C0.00620512 19.4445 0.0830685 19.6239 0.23059 19.7693C0.386238 19.927 0.57071 20.0039 0.784006 19.9998C0.997302 20.0039 1.17665 19.927 1.32205 19.7693L10.0076 11.0991L18.6778 19.7693C18.8334 19.927 19.0179 20.0039 19.2312 19.9998C19.4445 20.0039 19.6239 19.927 19.7693 19.7693C19.927 19.6239 20.0039 19.4445 19.9998 19.2312C20.0039 19.0179 19.927 18.8334 19.7693 18.6778L11.0991 10.0076L19.7693 1.32205Z" fill="#80828C"/>
</svg>
