<svg width="75" height="49" viewBox="0 0 75 49" fill="none" xmlns="http://www.w3.org/2000/svg">
<g clip-path="url(#clip0_53_567)">
<path d="M16.8164 -1.8827C14.6484 -1.41981 12.3516 0.425896 10.0371 3.56652C5.49024 9.7423 1.53516 20.3185 0.351563 29.4357C0.09375 31.4278 0.0351562 32.3653 0.0351562 34.4747C0.0351562 36.6193 0.09375 37.4454 0.351563 38.8986C1.14258 43.2872 3.21094 45.7775 6.46289 46.2579C8.00977 46.4864 9.53906 46.1876 11.0742 45.3614C12.5332 44.5763 13.752 43.6036 15.4688 41.8517C16.9746 40.3165 17.9648 39.1329 20.5078 35.8224C21.3223 34.756 22.2363 33.59 22.541 33.2325L23.0918 32.5704H37.5H51.9082L52.459 33.2325C52.7637 33.59 53.7481 34.8497 54.6563 36.0275C57.3281 39.5079 58.3359 40.6857 60.0352 42.3556C61.4766 43.7618 62.4727 44.547 63.7207 45.2501C65.3496 46.1642 66.9258 46.4982 68.5371 46.2579C69.293 46.1466 69.9141 45.9532 70.5527 45.631C74.5313 43.6388 75.9141 37.1466 74.3848 27.6778C73.1543 20.0607 70.0488 11.547 66.3516 5.62316C65.1563 3.71301 64.0371 2.27746 62.7246 0.953239C61.1719 -0.605354 59.918 -1.41981 58.4414 -1.83582C57.9785 -1.97059 57.9492 -1.97059 52.9688 -1.98817C48.1055 -2.00574 47.9531 -1.99989 47.5781 -1.88856C47.0801 -1.73621 46.3535 -1.27332 45.1758 -0.359261C44.1152 0.461052 43.5352 0.836052 43.084 1.00011C42.7969 1.09972 42.4746 1.10558 37.5 1.10558C32.5254 1.10558 32.2031 1.09972 31.916 1.00011C31.4648 0.836052 30.8848 0.461052 29.8242 -0.359261C28.6523 -1.26746 27.9258 -1.73035 27.4336 -1.8827C27.0703 -1.99403 26.8887 -1.99989 22.1836 -1.99403C17.707 -1.99403 17.2734 -1.98231 16.8164 -1.8827ZM56.1504 5.40636C56.7656 5.55285 57.3047 6.02746 57.5156 6.62511C57.6328 6.94738 57.6328 7.56847 57.5156 7.89074C57.0293 9.25011 55.2832 9.61926 54.3164 8.57043C53.9356 8.16027 53.8184 7.84972 53.8184 7.25793C53.8184 6.87707 53.8477 6.69543 53.9414 6.49035C54.1875 5.96301 54.6738 5.55871 55.2481 5.40636C55.5996 5.31261 55.7402 5.31261 56.1504 5.40636ZM19.6875 8.28332V10.3634H21.7676H23.8477L23.8359 11.7462L23.8184 13.1232L21.7559 13.1173H19.6875L19.6758 15.2091L19.6582 17.3068L18.2695 17.3243L16.875 17.3361V15.2267V13.1173H14.7949H12.7148V11.7403V10.3634H14.7949H16.875V8.28332V6.20324H18.2813H19.6875V8.28332ZM51.4629 10.0939C52.0957 10.2403 52.6758 10.7853 52.8516 11.3946C52.957 11.7579 52.9043 12.4493 52.7461 12.7775C52.5645 13.1466 52.1836 13.5157 51.7969 13.6974C51.3281 13.9142 50.6719 13.9083 50.209 13.6857C49.8223 13.4982 49.4356 13.1056 49.2598 12.7189C49.0781 12.3321 49.0781 11.5587 49.2539 11.1778C49.5059 10.6388 50.0274 10.2111 50.6074 10.0763C50.9297 10.0001 51.082 10.006 51.4629 10.0939ZM61.3301 10.2462C61.9922 10.5743 62.3731 11.1896 62.3731 11.9454C62.3731 12.3263 62.3438 12.4435 62.1797 12.7775C61.8399 13.4747 61.2363 13.8497 60.4688 13.8497C59.6953 13.8439 59.0977 13.4689 58.7578 12.7775C58.5938 12.4435 58.5645 12.3321 58.5645 11.9454C58.5703 11.5939 58.5996 11.4357 58.7227 11.1778C59.1914 10.1583 60.3223 9.75402 61.3301 10.2462ZM56.6133 14.9806C56.9883 15.1622 57.3516 15.5431 57.5332 15.9298C57.7324 16.3575 57.7441 17.0489 57.5566 17.465C57.3809 17.8517 57 18.2443 56.6074 18.4318C56.3262 18.5724 56.209 18.5958 55.7813 18.5958C55.3535 18.5958 55.2363 18.5724 54.9492 18.4318C53.9707 17.9513 53.5781 16.715 54.1172 15.7775C54.2988 15.4552 54.7852 15.0216 55.0957 14.9103C55.4707 14.7696 56.2617 14.8107 56.6133 14.9806ZM30.2051 22.5216C31.6172 22.8204 32.8184 24.0157 33.1406 25.4571C33.3398 26.3595 33.1641 27.4083 32.6836 28.2228C32.3789 28.7443 31.7461 29.3419 31.2012 29.6232C30.5742 29.9454 30.0938 30.0685 29.4141 30.0685C27.9141 30.0743 26.6016 29.254 25.957 27.9122C25.6641 27.297 25.582 26.922 25.5879 26.2423C25.5938 24.7364 26.3965 23.4708 27.7559 22.8087C28.5 22.4454 29.3672 22.3458 30.2051 22.5216ZM46.4238 22.5216C47.2266 22.6915 48.0879 23.2306 48.5977 23.8751C49.1602 24.59 49.4121 25.3517 49.4121 26.3009C49.4063 27.3849 49.0254 28.2521 48.2168 29.0255C47.4727 29.7345 46.6172 30.0743 45.5859 30.0685C44.5488 30.0626 43.6348 29.6876 42.9199 28.9669C42.1992 28.2403 41.8477 27.4611 41.7949 26.4767C41.7539 25.756 41.8711 25.1876 42.1992 24.5255C42.6797 23.5646 43.7227 22.7501 44.7656 22.5275C45.2637 22.4161 45.9316 22.4161 46.4238 22.5216Z" fill="#D8D8D8" fill-opacity="0.5"/>
</g>
<defs>
<clipPath id="clip0_53_567">
<rect width="75" height="48.3398" fill="white"/>
</clipPath>
</defs>
</svg>
