<svg width="41" height="42" viewBox="0 0 41 42" fill="none" xmlns="http://www.w3.org/2000/svg">
<g clip-path="url(#clip0_61_424)">
<path d="M28.8238 14.7027C28.6459 14.242 28.3735 13.8237 28.0241 13.4746C27.6747 13.1256 27.2561 12.8536 26.7952 12.6762C26.1605 12.4412 25.4902 12.3169 24.8135 12.3089C23.6881 12.2577 23.3507 12.2449 20.5 12.2449C17.6492 12.2449 17.3118 12.2577 16.1864 12.3089C15.509 12.3167 14.8379 12.4409 14.2026 12.6762C13.7419 12.8541 13.3235 13.1265 12.9745 13.4759C12.6255 13.8253 12.3535 14.244 12.1761 14.7049C11.9411 15.3395 11.8168 16.0098 11.8088 16.6865C11.7576 17.8119 11.7448 18.1493 11.7448 21.0001C11.7448 23.8509 11.7576 24.1883 11.8088 25.3136C11.8166 25.9911 11.9408 26.6621 12.1761 27.2974C12.354 27.7581 12.6264 28.1765 12.9758 28.5255C13.3252 28.8746 13.7438 29.1465 14.2048 29.3239C14.8394 29.559 15.5097 29.6832 16.1864 29.6912C17.3118 29.7425 17.6492 29.7553 20.5 29.7553C23.3507 29.7553 23.6881 29.7425 24.8135 29.6912C25.4909 29.6835 26.162 29.5592 26.7973 29.3239C27.258 29.146 27.6764 28.8736 28.0254 28.5242C28.3744 28.1748 28.6464 27.7562 28.8238 27.2953C29.0589 26.6607 29.1831 25.9903 29.1911 25.3136C29.2424 24.1883 29.2552 23.8509 29.2552 21.0001C29.2552 18.1493 29.2424 17.8119 29.1911 16.6865C29.1834 16.0091 29.0591 15.338 28.8238 14.7027ZM20.5 26.4838C19.4154 26.4838 18.3552 26.1622 17.4534 25.5597C16.5516 24.9571 15.8487 24.1006 15.4336 23.0986C15.0186 22.0966 14.91 20.994 15.1216 19.9303C15.3332 18.8665 15.8554 17.8894 16.6224 17.1225C17.3893 16.3556 18.3664 15.8333 19.4301 15.6217C20.4939 15.4101 21.5965 15.5187 22.5985 15.9338C23.6005 16.3488 24.457 17.0517 25.0595 17.9535C25.6621 18.8553 25.9837 19.9155 25.9837 21.0001C25.9837 22.4545 25.406 23.8493 24.3776 24.8777C23.3492 25.9061 21.9543 26.4838 20.5 26.4838ZM26.1994 16.5819C25.946 16.5819 25.6983 16.5068 25.4876 16.366C25.2769 16.2252 25.1126 16.0251 25.0157 15.791C24.9187 15.5568 24.8933 15.2992 24.9428 15.0507C24.9922 14.8022 25.1142 14.5739 25.2934 14.3947C25.4726 14.2155 25.7009 14.0935 25.9494 14.044C26.198 13.9946 26.4556 14.02 26.6897 14.1169C26.9238 14.2139 27.1239 14.3781 27.2647 14.5888C27.4055 14.7995 27.4806 15.0472 27.4806 15.3007C27.4806 15.6405 27.3456 15.9664 27.1054 16.2066C26.8651 16.4469 26.5392 16.5819 26.1994 16.5819Z" fill="#B7B7B7"/>
<path d="M20.5 24.5597C22.466 24.5597 24.0598 22.9659 24.0598 20.9999C24.0598 19.0339 22.466 17.4402 20.5 17.4402C18.5341 17.4402 16.9403 19.0339 16.9403 20.9999C16.9403 22.9659 18.5341 24.5597 20.5 24.5597Z" fill="#B7B7B7"/>
<path d="M20.5 0.5C16.4455 0.5 12.482 1.7023 9.11082 3.95487C5.73961 6.20744 3.11208 9.4091 1.56048 13.155C0.00888229 16.9009 -0.397086 21.0227 0.393911 24.9993C1.18491 28.976 3.13734 32.6287 6.00432 35.4957C8.8713 38.3627 12.524 40.3151 16.5007 41.1061C20.4773 41.8971 24.5991 41.4911 28.345 39.9395C32.0909 38.3879 35.2926 35.7604 37.5451 32.3892C39.7977 29.018 41 25.0545 41 21C41 15.5631 38.8402 10.3488 34.9957 6.50431C31.1512 2.65982 25.9369 0.5 20.5 0.5ZM31.113 25.4032C31.0947 26.2886 30.9265 27.1644 30.6155 27.9935C30.3412 28.7026 29.9219 29.3466 29.3843 29.8842C28.8466 30.4219 28.2026 30.8412 27.4935 31.1155C26.6644 31.4265 25.7886 31.5947 24.9032 31.613C23.7629 31.6643 23.3999 31.6771 20.5 31.6771C17.6001 31.6771 17.2371 31.6643 16.0968 31.613C15.2114 31.5947 14.3356 31.4265 13.5065 31.1155C12.7974 30.8412 12.1534 30.4219 11.6158 29.8842C11.0781 29.3466 10.6588 28.7026 10.3845 27.9935C10.0735 27.1644 9.90531 26.2886 9.88699 25.4032C9.83574 24.2629 9.82292 23.8999 9.82292 21C9.82292 18.1001 9.83574 17.7371 9.88699 16.5968C9.90531 15.7114 10.0735 14.8356 10.3845 14.0065C10.6588 13.2974 11.0781 12.6534 11.6158 12.1158C12.1534 11.5781 12.7974 11.1588 13.5065 10.8845C14.3356 10.5735 15.2114 10.4053 16.0968 10.387C17.2371 10.3357 17.6001 10.3229 20.5 10.3229C23.3999 10.3229 23.7629 10.3357 24.9032 10.387C25.7886 10.4053 26.6644 10.5735 27.4935 10.8845C28.2026 11.1588 28.8466 11.5781 29.3843 12.1158C29.9219 12.6534 30.3412 13.2974 30.6155 14.0065C30.9265 14.8356 31.0947 15.7114 31.113 16.5968C31.1643 17.7371 31.1771 18.1001 31.1771 21C31.1771 23.8999 31.1643 24.2629 31.113 25.4032Z" fill="#B7B7B7"/>
</g>
<defs>
<clipPath id="clip0_61_424">
<rect width="41" height="41" fill="white" transform="translate(0 0.5)"/>
</clipPath>
</defs>
</svg>
