<svg width="18" height="18" viewBox="0 0 18 18" fill="none" xmlns="http://www.w3.org/2000/svg">
<g clip-path="url(#clip0_53_563)">
<path d="M7.26652 8.03554L2.64829 12.654C2.06256 13.2393 1.74023 14.0178 1.74023 14.8459C1.74023 15.6745 2.06294 16.4529 2.64841 17.0381C3.23376 17.6233 4.0124 17.9459 4.84031 17.9461H4.84056C5.66861 17.9461 6.44686 17.6236 7.03221 17.0381L11.6507 12.4195C12.6012 11.469 12.8268 10.025 12.2315 8.83958L11.2175 9.85368C11.3435 10.4464 11.1612 11.0688 10.731 11.4992L5.99639 16.2334L5.99309 16.2305C5.65629 16.5246 5.23096 16.685 4.78316 16.685C4.30462 16.685 3.85669 16.5005 3.52116 16.1653C3.18067 15.825 2.99665 15.3704 3.00135 14.8854C3.00592 14.444 3.16657 14.0253 3.45652 13.6929L3.45385 13.6904L3.51875 13.625C3.52726 13.6159 3.53614 13.6067 3.54491 13.5982C3.54757 13.5955 3.55037 13.5926 3.55304 13.5903L3.56866 13.5744L8.18689 8.95591C8.52675 8.61644 8.97811 8.42963 9.45791 8.42963C9.58199 8.42963 9.70518 8.44245 9.82609 8.46747L10.8412 7.4521C10.4145 7.23925 9.93988 7.12775 9.45829 7.12775C8.63051 7.12787 7.85199 7.45033 7.26652 8.03554ZM16.2317 3.09092C16.2317 2.26287 15.909 1.48436 15.3237 0.899146C14.7382 0.313293 13.9597 -0.0090332 13.1315 -0.0090332C12.3036 -0.0090332 11.5252 0.31342 10.9399 0.899146L6.32126 5.51726C5.37143 6.46696 5.14524 7.90994 5.73896 9.09485L6.71001 8.12381C6.59863 7.56907 6.75548 6.98538 7.13101 6.55459L7.12835 6.5518L7.1921 6.48741C7.20023 6.4789 7.20912 6.46988 7.21763 6.46125C7.2203 6.45871 7.22271 6.45617 7.2255 6.45363L7.2415 6.4375L11.8596 1.81926C12.1993 1.47954 12.651 1.29259 13.1314 1.29259C13.612 1.29259 14.0635 1.47954 14.4032 1.81926C15.1045 2.52043 15.1045 3.66204 14.4032 4.3627L9.6695 9.09701L9.66619 9.09371C9.32888 9.38797 8.90432 9.5485 8.45639 9.5485C8.33561 9.5485 8.21623 9.53656 8.09901 9.51319L7.12809 10.4841C7.55596 10.6976 8.03068 10.8096 8.51328 10.8096C9.34171 10.8096 10.1201 10.4872 10.7054 9.90181L15.3238 5.28345C15.9093 4.6976 16.2317 3.91921 16.2317 3.09092Z" fill="white"/>
</g>
<defs>
<clipPath id="clip0_53_563">
<rect width="18" height="18" fill="white"/>
</clipPath>
</defs>
</svg>
