<svg width="25" height="36" viewBox="0 0 25 36" fill="none" xmlns="http://www.w3.org/2000/svg">
<path fill-rule="evenodd" clip-rule="evenodd" d="M10.665 0.622314C12.2789 1.18047 12.6265 1.42024 13.3176 1.97839C14.0088 2.53654 14.5121 3.10255 14.8158 3.97516C15.1194 4.84776 15.3551 5.8147 15.1274 7.22187C14.8996 8.62905 14.5081 9.15182 14.0607 10.0441C13.6093 10.9363 12.8542 11.8129 12.4228 12.5872C11.9953 13.3615 11.6477 14.1595 11.4919 14.694C11.0405 15.9007 11.1603 17.4769 11.9154 17.8032C12.6704 18.1294 13.9049 17.418 14.5641 16.0855C15.0594 15.0871 15.1194 14.0533 14.7798 13.4362L14.6 13.1965L14.8677 13.3104C15.391 13.6131 15.6227 14.2066 15.7106 14.6508C15.8145 15.1854 15.7386 15.5195 15.6467 15.9322C16.0063 15.7514 16.3179 15.5509 16.5096 15.0832C16.8572 14.2263 16.2979 13.0785 15.5788 12.5125L15.5349 12.4811L15.5588 12.4772C17.2687 12.4103 19.1983 14.0966 20.1371 16.6083C20.8082 18.2709 20.8841 19.0846 21.028 20.7512C21.2077 22.8659 20.5406 25.122 20.0572 26.3052C21.3396 25.1378 22.2065 23.7738 22.586 22.0797C22.8856 20.7315 22.7138 19.3833 22.1146 17.5555C25.9338 21.8124 24.5076 28.0622 24.172 29.147C23.2532 32.1265 21.1398 34.6421 18.8986 35.723L18.591 35.8527L19.1343 35.1845C19.8095 34.2097 20.3768 33.0816 20.7843 31.8395C20.988 31.2185 21.1398 30.5974 21.2477 29.9843L21.2876 29.6973L20.7483 30.4284C18.619 33.1406 15.9583 34.988 13.5134 35.6876L12.8662 35.8409L13.4335 35.0194C16.2979 30.6092 17.037 25.8217 15.5269 23.1253L15.1753 22.5986L15.2592 23.0349C15.455 25.1692 14.9116 27.673 13.5813 30.0432C10.9246 34.7797 6.11867 37.1852 2.85476 35.4164C-0.409145 33.6476 -1.01239 27.4254 1.76413 23.6323C2.56313 22.5396 3.05851 22.1465 3.7017 21.5963C3.18235 22.7833 2.73092 23.9429 2.63903 25.2242C2.56313 26.2462 2.8228 27.2053 3.33416 27.8971L3.62579 28.1447C3.91743 28.3019 4.24102 28.3923 4.5806 28.3923C5.9349 28.3923 7.03352 26.9852 7.03352 25.2478C7.03352 24.3792 6.75786 23.593 6.31442 23.0231L5.97085 22.6615L6.10668 22.6772C7.40106 22.9838 8.37184 24.3084 8.37184 25.8964L8.34387 26.2069L8.39181 25.9671C8.42377 25.7274 8.47171 25.8767 8.43975 25.2242C8.37184 23.8485 8.20005 23.1646 7.40505 22.1701C6.7259 21.5216 6.47022 21.2661 5.12791 20.1969C3.81755 19.0846 3.50594 18.7662 3.17037 17.3669C2.93067 16.2663 3.17835 15.1657 3.6218 14.0651C4.03328 13.1336 4.66449 12.1155 5.47947 11.125C6.83377 9.47807 8.37583 8.29887 9.61028 7.85864L9.80204 7.81147L9.01503 8.43644C8.53563 8.91205 8.16809 9.20292 7.64875 9.85541C6.82178 10.8931 6.61404 11.4041 6.30643 12.6344C6.18259 13.2397 6.18658 13.9472 6.2545 14.47C6.35437 15.0792 6.64201 15.7121 6.81379 15.9676C7.00555 15.2915 7.56086 13.9079 8.09219 12.9921C8.62352 12.0802 9.21079 11.4827 10.0018 10.4882C10.7928 9.48986 12.2709 8.0198 12.8342 7.00569C13.3975 5.99158 13.4854 5.18187 13.3816 4.39574C13.2817 3.60961 12.9022 2.87458 12.4467 2.24567C11.9993 1.61284 11.8235 1.35342 10.665 0.622314Z" fill="white"/>
</svg>
