<svg width="26" height="26" viewBox="0 0 26 26" fill="none" xmlns="http://www.w3.org/2000/svg">
<path d="M10.92 1.56006C6.0328 1.56006 2.07999 5.51287 2.07999 10.4001C2.07999 15.2872 6.0328 19.2401 10.92 19.2401C12.6648 19.2401 14.2797 18.7282 15.6487 17.8588L22.035 24.2451L24.245 22.0351L17.94 15.7463C19.0734 14.2594 19.76 12.4171 19.76 10.4001C19.76 5.51287 15.8072 1.56006 10.92 1.56006ZM10.92 3.64006C14.6636 3.64006 17.68 6.65647 17.68 10.4001C17.68 14.1437 14.6636 17.1601 10.92 17.1601C7.17639 17.1601 4.15999 14.1437 4.15999 10.4001C4.15999 6.65647 7.17639 3.64006 10.92 3.64006Z" fill="white" fill-opacity="0.4"/>
</svg>
