<svg width="36" height="37" viewBox="0 0 36 37" fill="none" xmlns="http://www.w3.org/2000/svg">
<path d="M4.6502 17.0593L10.0502 21.9977L8.5502 28.8816C8.4002 29.7795 8.7002 30.6774 9.4502 31.1263C9.7502 31.4256 10.2002 31.5752 10.6502 31.5752C10.9502 31.5752 11.2502 31.5752 11.5502 31.4256C11.5502 31.4256 11.7002 31.4256 11.7002 31.2759L17.8502 27.834L24.0002 31.2759C24.0002 31.2759 24.1502 31.2759 24.1502 31.4256C24.9002 31.7249 25.8002 31.7249 26.4002 31.2759C27.1502 30.827 27.4502 29.9291 27.3002 29.0312L25.8002 22.1474C26.4002 21.6984 27.3002 20.8005 28.2002 19.9026L31.0502 17.3586L31.2002 17.2089C31.8002 16.6103 31.9502 15.7125 31.6502 14.9642C31.3502 14.216 30.7502 13.6174 29.8502 13.4677H29.7002L22.6502 12.7195L19.8002 6.28457C19.8002 6.28457 19.8002 6.13492 19.6502 6.13492C19.5002 5.08737 18.7502 4.63843 18.0002 4.63843C17.2502 4.63843 16.5002 5.08737 16.0502 5.83562C16.0502 5.83562 16.0502 5.98527 15.9002 5.98527L13.0502 12.4202L6.0002 13.1684H5.8502C5.1002 13.3181 4.3502 13.9167 4.0502 14.6649C3.9002 15.5628 4.0502 16.4607 4.6502 17.0593Z" fill="#D71BAE"/>
</svg>
