<svg width="43" height="44" viewBox="0 0 43 44" fill="none" xmlns="http://www.w3.org/2000/svg">
<path d="M21.5 1.36011C10.1007 1.36011 0.859985 10.6008 0.859985 22.0001C0.859985 33.3994 10.1007 42.6401 21.5 42.6401C32.8993 42.6401 42.14 33.3994 42.14 22.0001C42.14 10.6008 32.8993 1.36011 21.5 1.36011ZM29.8957 18.2677C29.9043 18.444 29.9065 18.6203 29.9065 18.7923C29.9065 24.1673 25.8193 30.3615 18.3416 30.3615C16.1321 30.3651 13.9685 29.7305 12.1109 28.534C12.427 28.5727 12.7516 28.5877 13.0806 28.5877C14.9855 28.5877 16.7377 27.9406 18.1288 26.8484C17.2811 26.8317 16.4597 26.551 15.7791 26.0454C15.0985 25.5397 14.5926 24.8344 14.3319 24.0276C14.9407 24.1433 15.5678 24.1191 16.1658 23.9566C15.2457 23.7706 14.4183 23.272 13.8239 22.5455C13.2294 21.819 12.9045 20.9092 12.9043 19.9705V19.9211C13.4525 20.2242 14.0803 20.4091 14.7468 20.4306C13.8843 19.8564 13.2736 18.9743 13.0398 17.9648C12.806 16.9553 12.9667 15.8947 13.4891 14.9997C14.5102 16.2553 15.7837 17.2825 17.227 18.0147C18.6703 18.7469 20.2513 19.1678 21.8676 19.2503C21.6621 18.378 21.7506 17.4623 22.1192 16.6455C22.4878 15.8288 23.116 15.1566 23.906 14.7337C24.696 14.3107 25.6036 14.1606 26.4878 14.3067C27.3719 14.4528 28.183 14.8869 28.7949 15.5415C29.7048 15.3615 30.5772 15.0278 31.3749 14.5547C31.0717 15.4966 30.4368 16.2965 29.5883 16.8057C30.3942 16.7086 31.1812 16.492 31.9232 16.1629C31.3781 16.9796 30.6915 17.6924 29.8957 18.2677Z" fill="#B7B7B7"/>
</svg>
