<svg width="43" height="44" viewBox="0 0 43 44" fill="none" xmlns="http://www.w3.org/2000/svg">
<path d="M24.9464 21.6411L20.1175 19.3879C19.6961 19.1922 19.35 19.4115 19.35 19.8781V24.1222C19.35 24.5887 19.6961 24.808 20.1175 24.6124L24.9443 22.3592C25.3678 22.1614 25.3678 21.8389 24.9464 21.6411ZM21.5 1.36011C10.1007 1.36011 0.859985 10.6008 0.859985 22.0001C0.859985 33.3994 10.1007 42.6401 21.5 42.6401C32.8993 42.6401 42.14 33.3994 42.14 22.0001C42.14 10.6008 32.8993 1.36011 21.5 1.36011ZM21.5 30.3851C10.9349 30.3851 10.75 29.4327 10.75 22.0001C10.75 14.5676 10.9349 13.6151 21.5 13.6151C32.0651 13.6151 32.25 14.5676 32.25 22.0001C32.25 29.4327 32.0651 30.3851 21.5 30.3851Z" fill="#B7B7B7"/>
</svg>
